{
	"asset":{
		"version":"2.0",
		"generator":"Created using the official Cinema 4D glTF Exporter 1.000x290161"
	},
	"scenes":[{
		"nodes":[0]
	}],
	"nodes":[{
		"name":"rocket_uv",
		"translation":[0.11698241531848908,
		0.3899988830089569,
		1.0199915170669556],
		"rotation":[-6.123234262925839e-17,
		1.2246468525851679e-16,
		-1.2246468525851679e-16,
		-1.0],
		"scale":[1.0,
		1.0,
		1.0],
		"mesh":0
	}],
	"meshes":[{
		"primitives":[{
			"attributes":{
				"POSITION":1,
				"NORMAL":2,
				"TEXCOORD_0":3
			},
			"indices":0,
			"material":0
		}]
	}],
	"accessors":[{
		"bufferView":0,
		"type":"SCALAR",
		"componentType":5123,
		"count":3762,
		"byteOffset":0,
		"min":[0],
		"max":[1479]
	},
	{
		"bufferView":1,
		"type":"VEC3",
		"componentType":5126,
		"count":1480,
		"byteOffset":0,
		"min":[-34.717010498046878,
		-13.726457595825196,
		-25.797080993652345],
		"max":[34.123130798339847,
		94.33544158935547,
		38.07255935668945]
	},
	{
		"bufferView":1,
		"type":"VEC3",
		"componentType":5126,
		"count":1480,
		"byteOffset":12,
		"min":[-1.0,
		-0.9999970197677612,
		-0.9999971389770508],
		"max":[1.0,
		0.999999463558197,
		0.9999971389770508]
	},
	{
		"bufferView":1,
		"type":"VEC2",
		"componentType":5126,
		"count":1480,
		"byteOffset":24,
		"min":[0.0,
		0.0],
		"max":[0.9920828342437744,
		0.9764598608016968]
	}],
	"bufferViews":[{
		"buffer":0,
		"byteOffset":0,
		"byteLength":7524,
		"target":34963
	},
	{
		"buffer":0,
		"byteOffset":7524,
		"byteLength":47360,
		"target":34962,
		"byteStride":32
	}],
	"buffers":[{
		"uri":"data:application/octet-stream;base64,",
		"byteLength":54884
	}],
	"materials":[{
		"pbrMetallicRoughness":{
			"baseColorFactor":[1.0,
			1.0,
			1.0,
			1.0],
			"metallicFactor":1.0,
			"roughnessFactor":1.0
		},
		"emissiveFactor":[1.0,
		1.0,
		1.0],
		"name":"Mat",
		"alphaMode":"OPAQUE",
		"doubleSided":false
	}]
}